<svg width="220" height="244" viewBox="0 0 220 244" fill="none" xmlns="http://www.w3.org/2000/svg">
<g filter="url(#filter0_d)">
<rect x="20" y="16" width="180" height="204" rx="10" fill="#262626"/>
</g>
<path d="M78 181C78 178.239 80.2386 176 83 176H138C140.761 176 143 178.239 143 181V195C143 197.761 140.761 200 138 200H83C80.2386 200 78 197.761 78 195V181Z" fill="#F6D47A"/>
<path d="M92.8259 185.188H95.1179V184.168H89.2259V185.188H91.5899V186.232C91.5899 188.032 90.4859 190.084 88.8299 190.876L89.5379 191.86C90.7859 191.248 91.7459 189.952 92.2259 188.44C92.7179 189.808 93.6419 191.008 94.8539 191.584L95.5379 190.612C93.8939 189.832 92.8259 187.912 92.8259 186.232V185.188ZM99.1139 187.36H97.4219V183.088H96.1859V193.924H97.4219V188.38H99.1139V187.36ZM101.933 188.068H105.713V184.048H100.661V185.056H104.465V187.072H100.685V191.368H101.609C103.517 191.368 105.137 191.308 106.997 190.984L106.865 189.976C105.149 190.252 103.649 190.336 101.933 190.348V188.068ZM107.765 183.064V193.948H109.013V183.064H107.765ZM118.78 183.076V193.948H120.028V183.076H118.78ZM111.688 183.976V191.368H116.896V183.976H115.66V186.736H112.912V183.976H111.688ZM112.912 187.72H115.66V190.372H112.912V187.72ZM127.047 184.228C128.655 184.228 129.627 184.624 129.627 185.332C129.627 186.028 128.655 186.424 127.047 186.424C125.439 186.424 124.455 186.028 124.455 185.332C124.455 184.624 125.439 184.228 127.047 184.228ZM127.047 187.372C129.411 187.372 130.911 186.604 130.911 185.332C130.911 184.048 129.411 183.268 127.047 183.268C124.683 183.268 123.183 184.048 123.183 185.332C123.183 186.604 124.683 187.372 127.047 187.372ZM129.543 192.808H124.539V191.152H129.543V192.808ZM131.943 189.076V188.08H122.139V189.076H126.423V190.168H123.315V193.792H130.755V190.168H127.659V189.076H131.943Z" fill="#FAFAFA"/>
<mask id="path-4-inside-1" fill="white">
<rect x="50" y="110.4" width="120" height="45.6" rx="2"/>
</mask>
<rect x="50" y="110.4" width="120" height="45.6" rx="2" fill="#262626" stroke="#F6D47A" stroke-width="5" mask="url(#path-4-inside-1)"/>
<path d="M86 120.599L86 147.9C86 148.292 86.4329 148.535 86.7777 148.348C89.6868 146.771 93.6422 145.801 98 145.801C102.358 145.801 106.313 146.771 109.222 148.348C109.567 148.535 110 148.292 110 147.9V120.599C107.039 118.757 102.76 117.6 98 117.6C93.2403 117.6 88.9606 118.757 86 120.599Z" stroke="#F6D47A" stroke-width="2.5"/>
<path d="M110 120.599L110 147.9C110 148.292 110.433 148.535 110.778 148.348C113.687 146.771 117.642 145.801 122 145.801C126.358 145.801 130.313 146.771 133.222 148.348C133.567 148.535 134 148.292 134 147.9V120.877C134 120.704 133.911 120.543 133.763 120.455C130.813 118.697 126.634 117.6 122 117.6C117.24 117.6 112.961 118.757 110 120.599Z" stroke="#F6D47A" stroke-width="2.5"/>
<path d="M79.4156 120.788C79.0756 120.353 79.1528 119.724 79.588 119.384L83.9221 115.998C84.3573 115.658 84.9857 115.735 85.3257 116.171L100.321 135.364C100.379 135.438 100.415 135.526 100.424 135.619L101.065 141.718C101.103 142.085 100.744 142.366 100.397 142.24L94.6341 140.143C94.546 140.111 94.4688 140.055 94.4111 139.981L79.4156 120.788Z" fill="#262626" stroke="#F6D47A" stroke-width="2.5"/>
<circle cx="88.4" cy="73.2" r="3.6" fill="#F6D47A"/>
<circle cx="110" cy="73.2" r="3.6" fill="#F6D47A"/>
<ellipse cx="131.6" cy="73.2" rx="3.6" ry="3.6" fill="#F6D47A"/>
<defs>
<filter id="filter0_d" x="0" y="0" width="220" height="244" filterUnits="userSpaceOnUse" color-interpolation-filters="sRGB">
<feFlood flood-opacity="0" result="BackgroundImageFix"/>
<feColorMatrix in="SourceAlpha" type="matrix" values="0 0 0 0 0 0 0 0 0 0 0 0 0 0 0 0 0 0 127 0"/>
<feOffset dy="4"/>
<feGaussianBlur stdDeviation="10"/>
<feColorMatrix type="matrix" values="0 0 0 0 0 0 0 0 0 0 0 0 0 0 0 0 0 0 0.5 0"/>
<feBlend mode="normal" in2="BackgroundImageFix" result="effect1_dropShadow"/>
<feBlend mode="normal" in="SourceGraphic" in2="effect1_dropShadow" result="shape"/>
</filter>
</defs>
</svg>
