<svg width="280" height="280" viewBox="0 0 280 280" fill="none" xmlns="http://www.w3.org/2000/svg">
<path d="M13.3045 136.914L53.4716 247.272C53.6056 247.64 54.0915 247.72 54.3383 247.416C63.4639 236.158 78.488 225.73 96.9285 219.018C115.369 212.306 133.581 210.637 147.808 213.395C148.193 213.47 148.514 213.096 148.38 212.728L108.213 102.37C93.8611 99.3677 75.2764 100.965 56.4541 107.815C37.6317 114.666 22.3686 125.389 13.3045 136.914Z" stroke="#434343" stroke-width="5"/>
<path d="M108.213 102.37L148.38 212.728C148.514 213.097 149 213.177 149.247 212.872C158.372 201.614 173.396 191.186 191.837 184.474C210.277 177.763 228.489 176.094 242.716 178.852C243.101 178.927 243.422 178.553 243.288 178.185L203.121 67.8265C188.769 64.8243 170.185 66.4211 151.362 73.2718C132.54 80.1226 117.277 90.8454 108.213 102.37Z" stroke="#434343" stroke-width="5"/>
<path d="M61.5206 193.36C61.2928 182.266 67.5564 172.008 77.9169 168.237C88.2773 164.467 99.6689 168.298 106.626 176.943" stroke="#434343" stroke-width="5" stroke-linecap="round"/>
<circle cx="54.2537" cy="155.567" r="8" transform="rotate(-20 54.2537 155.567)" fill="#434343"/>
<circle cx="88.0828" cy="143.254" r="8" transform="rotate(-20 88.0828 143.254)" fill="#434343"/>
<path d="M229.418 31.7071C229.808 31.3166 230.442 31.3166 230.832 31.7071L253.928 54.8029C254.318 55.1934 254.318 55.8266 253.928 56.2171L172.064 138.08C171.998 138.147 171.914 138.194 171.822 138.215L141.029 145.204C140.67 145.286 140.349 144.965 140.431 144.606L147.42 113.813C147.441 113.721 147.488 113.637 147.554 113.571L229.418 31.7071Z" fill="#141414" stroke="#434343" stroke-width="5"/>
</svg>
