<svg width="24" height="24" viewBox="0 0 24 24" fill="none" xmlns="http://www.w3.org/2000/svg">
<path fill-rule="evenodd" clip-rule="evenodd" d="M12.1985 10.5705V14.0004H17.8698C17.6395 15.4727 16.1547 18.3128 12.1985 18.3128C8.7848 18.3128 5.99968 15.4853 5.99968 12.0004C5.99968 8.51585 8.7848 5.68827 12.1985 5.68827C14.1399 5.68827 15.4409 6.51686 16.1835 7.23068L18.8985 4.61718C17.1564 2.98509 14.8987 2 12.2 2C6.67253 2 2.19995 6.47258 2.19995 12C2.19995 17.5274 6.67253 22 12.2 22C17.9699 22 21.8013 17.9415 21.8013 12.23C21.8013 11.5737 21.7312 11.074 21.6448 10.5739L12.2 10.5698L12.1985 10.5706V10.5705Z" fill="#262626"/>
</svg>
