<svg width="39" height="24" viewBox="0 0 39 24" fill="none" xmlns="http://www.w3.org/2000/svg">
<rect width="39" height="24" rx="5" fill="#434343"/>
<path d="M17.072 8.728V6.088H15.836V12.556H17.072V9.748H18.608V8.728H17.072ZM14.096 6.772H12.872V8.272H10.22V6.772H8.984V11.812H14.096V6.772ZM12.872 10.828H10.22V9.244H12.872V10.828ZM13.58 12.808C11.348 12.808 9.968 13.588 9.968 14.872C9.968 16.168 11.348 16.936 13.58 16.936C15.812 16.936 17.192 16.168 17.192 14.872C17.192 13.588 15.812 12.808 13.58 12.808ZM13.58 15.964C12.032 15.964 11.192 15.592 11.192 14.872C11.192 14.152 12.032 13.792 13.58 13.792C15.128 13.792 15.968 14.152 15.968 14.872C15.968 15.592 15.128 15.964 13.58 15.964ZM28.2111 8.728V6.088H26.9751V12.568H28.2111V9.748H29.7471V8.728H28.2111ZM26.1111 11.188C24.4551 10.648 23.5551 9.412 23.5551 8.056V7.852H25.8231V6.856H20.0031V7.852H22.3071V8.068C22.3071 9.544 21.3591 10.948 19.6551 11.524L20.2791 12.496C21.5751 12.052 22.4871 11.128 22.9671 9.976C23.4351 10.984 24.2991 11.764 25.5111 12.148L26.1111 11.188ZM24.7191 12.82C22.4871 12.82 21.1071 13.576 21.1071 14.872C21.1071 16.168 22.4871 16.924 24.7191 16.924C26.9511 16.924 28.3311 16.168 28.3311 14.872C28.3311 13.576 26.9511 12.82 24.7191 12.82ZM24.7191 15.952C23.1711 15.952 22.3311 15.592 22.3311 14.872C22.3311 14.152 23.1711 13.792 24.7191 13.792C26.2671 13.792 27.1071 14.152 27.1071 14.872C27.1071 15.592 26.2671 15.952 24.7191 15.952Z" fill="#F0F0F0"/>
</svg>
