<svg width="100" height="100" viewBox="0 0 100 100" fill="none" xmlns="http://www.w3.org/2000/svg">
<mask id="path-1-inside-1" fill="white">
<rect y="62" width="100" height="38" rx="2"/>
</mask>
<rect y="62" width="100" height="38" rx="2" fill="#262626" stroke="#F6D47A" stroke-width="5" mask="url(#path-1-inside-1)"/>
<path d="M30 70.4993L30 93.1C30 93.4923 30.4335 93.7359 30.7804 93.5528C33.1916 92.28 36.4341 91.5007 40 91.5007C43.5659 91.5007 46.8084 92.28 49.2196 93.5528C49.5665 93.7359 50 93.4923 50 93.1V70.4993C47.5328 68.9643 43.9664 68 40 68C36.0336 68 32.4672 68.9643 30 70.4993Z" stroke="#F6D47A" stroke-width="2.5"/>
<path d="M50 70.4993L50 93.1C50 93.4923 50.4335 93.7359 50.7804 93.5528C53.1916 92.28 56.4341 91.5007 60 91.5007C63.5659 91.5007 66.8084 92.28 69.2196 93.5528C69.5665 93.7359 70 93.4923 70 93.1V70.7771C70 70.6044 69.9112 70.4432 69.7625 70.3553C67.3067 68.9042 63.8409 68 60 68C56.0336 68 52.4672 68.9643 50 70.4993Z" stroke="#F6D47A" stroke-width="2.5"/>
<path d="M24.6157 70.788C24.2756 70.3528 24.3528 69.7244 24.788 69.3843L28.1371 66.7678C28.5723 66.4278 29.2007 66.5049 29.5407 66.9401L41.9196 82.7843C41.9773 82.8582 42.0131 82.9468 42.0228 83.04L42.5401 87.9657C42.5787 88.3332 42.2191 88.6141 41.8719 88.4878L37.2176 86.7943C37.1295 86.7622 37.0522 86.7061 36.9945 86.6322L24.6157 70.788Z" fill="#262626" stroke="#F6D47A" stroke-width="2.5"/>
<circle cx="32" cy="31" r="3" fill="#F6D47A"/>
<circle cx="50" cy="31" r="3" fill="#F6D47A"/>
<circle cx="68" cy="31" r="3" fill="#F6D47A"/>
</svg>
