<svg width="161" height="32" viewBox="0 0 161 32" fill="none" xmlns="http://www.w3.org/2000/svg">
<path d="M46.4182 26C44.4374 26 42.7776 25.6607 41.4388 24.9821C40.1 24.3035 38.9537 23.359 38 22.1486L40.9711 18.7923C41.8881 20.0028 42.8143 20.8189 43.7497 21.2407C44.7033 21.6625 45.657 21.8735 46.6107 21.8735C47.326 21.8735 47.9129 21.7451 48.3714 21.4883C48.8299 21.2315 49.0591 20.8464 49.0591 20.3329C49.0591 19.8927 48.8666 19.5259 48.4814 19.2325C48.1146 18.939 47.647 18.7098 47.0784 18.5447C46.5099 18.3613 45.9321 18.2054 45.3453 18.077C43.2178 17.6185 41.6314 16.8941 40.586 15.9037C39.5406 14.9133 39.0179 13.602 39.0179 11.9697C39.0179 10.7776 39.3572 9.7414 40.0358 8.86107C40.7327 7.9624 41.6405 7.26547 42.7593 6.77029C43.878 6.25676 45.0793 6 46.3631 6C48.3072 6 49.8478 6.30261 50.9849 6.90784C52.122 7.49473 53.039 8.3017 53.7359 9.32875L50.7373 12.2173C50.1504 11.5387 49.4993 11.0344 48.784 10.7043C48.0688 10.3558 47.326 10.1816 46.5557 10.1816C45.7854 10.1816 45.171 10.3099 44.7125 10.5667C44.254 10.8235 44.0248 11.1995 44.0248 11.6946C44.0248 12.0798 44.1807 12.4007 44.4924 12.6575C44.8226 12.9143 45.2352 13.1252 45.7304 13.2902C46.2256 13.437 46.7391 13.5653 47.271 13.6754C48.6098 13.9321 49.7836 14.3081 50.7923 14.8033C51.8193 15.2985 52.6171 15.9496 53.1857 16.7565C53.7542 17.5452 54.0385 18.5264 54.0385 19.7001C54.0385 21.0573 53.7084 22.2036 53.0481 23.1389C52.3879 24.0743 51.4801 24.7895 50.3246 25.2847C49.1875 25.7616 47.8854 26 46.4182 26Z" fill="#8280F5"/>
<path d="M60.5795 25.7249V10.7868H54.8299V6.46767H71.4461V10.7868H65.5314V25.7249H60.5795Z" fill="#8280F5"/>
<path d="M81.8166 25.89C80.2027 25.89 78.7722 25.569 77.525 24.9271C76.2779 24.2668 75.2967 23.3682 74.5814 22.2311C73.8661 21.094 73.5085 19.7918 73.5085 18.3246V6.46767H78.4879V18.077C78.4879 19.0857 78.8088 19.9202 79.4507 20.5805C80.0926 21.2407 80.8813 21.5708 81.8166 21.5708C82.7887 21.5708 83.6048 21.2407 84.265 20.5805C84.9253 19.9202 85.2554 19.0857 85.2554 18.077V6.46767H90.1247V18.3246C90.1247 19.7918 89.7671 21.094 89.0518 22.2311C88.3366 23.3682 87.3462 24.2668 86.0807 24.9271C84.8336 25.569 83.4122 25.89 81.8166 25.89Z" fill="#8280F5"/>
<path d="M92.9002 25.7249V6.46767H101.071C102.96 6.46767 104.629 6.88033 106.078 7.70564C107.527 8.51261 108.654 9.64053 109.461 11.0894C110.287 12.5383 110.699 14.2072 110.699 16.0963C110.699 17.9853 110.287 19.6543 109.461 21.1032C108.654 22.552 107.527 23.6891 106.078 24.5144C104.629 25.3214 102.96 25.7249 101.071 25.7249H92.9002ZM100.933 10.7868H97.8521V21.4058H100.933C102.364 21.4058 103.51 20.9198 104.372 19.9477C105.252 18.9574 105.693 17.6735 105.693 16.0963C105.693 14.519 105.252 13.2444 104.372 12.2724C103.51 11.282 102.364 10.7868 100.933 10.7868Z" fill="#8280F5"/>
<path d="M112.883 25.7249V6.46767H126.528V10.6217H117.67V13.9505H125.345V17.912H117.67V21.5708H126.858V25.7249H112.883Z" fill="#8280F5"/>
<path d="M129.4 25.7249V6.46767H143.045V10.6217H134.187V13.9505H141.862V17.912H134.187V21.5708H143.375V25.7249H129.4Z" fill="#8280F5"/>
<path d="M145.917 25.7249V6.46767H154.307C155.536 6.46767 156.637 6.74278 157.609 7.29298C158.581 7.84319 159.342 8.60431 159.892 9.57634C160.46 10.53 160.745 11.6213 160.745 12.8501C160.745 14.1155 160.46 15.2435 159.892 16.2338C159.342 17.2242 158.581 18.0128 157.609 18.5997C156.637 19.1683 155.536 19.4525 154.307 19.4525H150.869V25.7249H145.917ZM150.786 15.1334H153.565C154.151 15.1334 154.647 14.9317 155.05 14.5282C155.454 14.1064 155.655 13.5653 155.655 12.9051C155.655 12.2448 155.454 11.7313 155.05 11.3645C154.647 10.9794 154.151 10.7868 153.565 10.7868H150.786V15.1334Z" fill="#8280F5"/>
<circle cx="16" cy="16" r="16" fill="#9290FB"/>
<circle cx="16" cy="16" r="12" fill="#5C5ADD"/>
<circle cx="16" cy="16" r="8" fill="#3C39C0"/>
</svg>
