<svg width="251" height="249" viewBox="0 0 251 249" fill="none" xmlns="http://www.w3.org/2000/svg">
<path d="M244.5 75.9999C241 61.9999 230.371 42.3598 221.5 34.1718C209.39 22.9945 201.177 14.7293 167.382 5.23119C119.79 -8.14443 75.8605 11.9526 59.0001 32.4999C48.8841 44.828 38.5 59 14.0352 85.8414C-1.61184 103.008 -8.66737 136.573 23.8922 167.44C44.5919 187.063 79.2846 190.136 107.254 190.874C153.937 192.106 202.851 184.378 228.354 162.357C257.784 136.946 250.79 101.159 244.5 75.9999Z" fill="#AFADFD"/>
<path d="M224.5 87.4999C221.773 77.0878 216 66.9998 207 56.5444C198.758 46.9694 190.974 41.6938 164.515 34.4389C127.254 24.2223 92.1272 38.0017 80 54.4999C70.5086 67.4124 61.544 76.9889 42.5 96.9998C30.0866 110.044 26.6818 134.761 52.1735 158.338C68.3798 173.326 95.5416 175.674 117.44 176.238C153.989 177.179 192.285 171.275 212.252 154.456C235.294 135.046 230 108.5 224.5 87.4999Z" fill="#8A87F6"/>
<path d="M202.758 98.0177C197.561 91.2401 194.148 87.8131 189.261 83.3963C182.59 77.3669 182.59 66.283 163.973 61.1594C137.757 53.9442 112.621 64.2294 103 74.9999C95.5 83.3963 88.4997 89.8568 75 105C66.5569 114.471 66.9943 132.01 84.9303 148.66C96.333 159.245 115.444 160.903 130.851 161.301C156.567 161.966 183.512 157.797 197.561 145.918C213.773 132.211 211.336 109.204 202.758 98.0177Z" fill="#706DF5"/>
<path d="M199.689 68.7223C199.689 86.2166 187.247 102.495 177.716 103.099C165.618 103.865 168.333 96.2287 167.224 78.7064C166.406 58.8109 163.132 39.7991 175.23 39.0331C193.327 36.2055 199.689 54.8454 199.689 68.7223Z" fill="#262626"/>
<path fill-rule="evenodd" clip-rule="evenodd" d="M166.318 106.818C171.833 100.761 175.089 91.9502 175.089 81.0396C175.089 56.895 166.003 48.3409 144.388 45.9955C143.49 45.9955 142.591 45.9867 141.694 45.978C134.164 45.9048 126.821 45.8334 121.672 50.9623C115.243 57.3671 112.035 70.8323 112.035 81.0396C112.035 99.5887 125.34 114.772 142.176 116.003C142.106 116.638 142.056 117.294 142.027 117.971C141.644 129.384 146.849 129.939 153.112 129.939C162.507 129.939 164.737 128.525 165.344 118.957C165.515 116.273 165.824 112.639 166.104 109.347C166.179 108.472 166.251 107.621 166.318 106.818Z" fill="#FFE1D0"/>
<ellipse cx="129" cy="78.0533" rx="3.1103" ry="3.81719" fill="black"/>
<ellipse cx="149.924" cy="78.9014" rx="3.1103" ry="3.81719" fill="black"/>
<path d="M137.307 84.698C135.845 85.0674 134.153 85.9543 134.092 88.2386C134.031 90.5228 135.407 91.8755 138.331 92.3324" stroke="black" stroke-width="1.5" stroke-linecap="round" stroke-linejoin="bevel"/>
<path d="M139.179 101.805C142.525 102.087 149.783 100.56 152.045 92.1909" stroke="black" stroke-width="1.5" stroke-linecap="round"/>
<path d="M184.42 86.1117C183.996 91.2013 180.037 94.7887 175.937 95.3012C171.837 95.8137 169.393 93.8757 168.727 91.7668C167.879 89.0806 168.303 88.4723 168.303 86.1117C168.303 81.2707 171.769 76.6394 176.22 76.6394C181.734 76.6394 184.844 81.0221 184.42 86.1117Z" fill="#FFE1D0"/>
<path d="M172.12 84.698C172.278 83.1386 174.665 80.3152 177.916 80.7393" stroke="black" stroke-width="1.5" stroke-linecap="round"/>
<path fill-rule="evenodd" clip-rule="evenodd" d="M181.952 29.6675C182.031 28.401 181.998 27.1409 181.851 25.9596C181.075 19.7267 178.313 14.857 172.446 15.5876C169.244 15.9863 166.972 19.7665 166.713 24.5802C158.099 18.2929 143.081 17.2484 125.607 25.0368C112.259 32.7734 104.589 46.324 108.854 53.6819C112.503 59.9788 123.487 60.662 134.945 55.879C134.533 58.0012 134.965 59.8833 136.074 61.2847C138.552 64.4182 143.457 64.2437 149.753 59.6877C151.769 58.2291 153.756 56.0502 155.446 53.6589C155.3 56.2102 155.534 58.9115 156.199 61.6423C158.908 72.7724 167.743 80.179 175.933 78.1856C184.123 76.1922 188.566 65.5536 185.857 54.4236C184.755 49.8961 182.64 45.9847 179.966 43.0715C182.491 43.0294 185.313 42.3187 187.563 41.1981C192.437 38.7709 195.644 35.1485 193.41 30.6625C191.937 27.7055 186.814 27.2633 181.952 29.6675Z" fill="#262626"/>
<path d="M98.334 155.607C110.436 120.658 133.443 119.179 143.433 122.807L153.47 124.734L163.933 124.08C169.023 121.676 182.878 119.81 197.581 131.573C215.438 145.859 230.893 197.781 195.317 199.162L196.861 196.308C188.802 183.066 164.91 161.558 129.283 178.636C122.732 173.453 101.035 164.414 79.0937 169.73L56.5773 206.62C56.1264 206.6 55.6486 206.45 55.1446 206.141C51.2201 203.736 51.1486 194.489 51.8929 190.024C52.4327 186.786 57.9949 175.692 61.082 172.474C63.2268 168.226 66.4237 163.633 70.4826 160.979C76.3639 157.134 90.7468 155.937 98.334 155.607Z" fill="#FFE7D6"/>
<path d="M79.094 169.729C101.036 164.414 122.732 173.452 129.283 178.636C164.91 161.558 184.844 184.651 189.086 192.427L169.717 248.13C156.597 228.563 120.612 228.919 105.107 230.804C91.7614 222.322 61.092 221.144 47.4255 221.615L79.094 169.729Z" fill="#ECF2FF"/>
<line x1="127.651" y1="186.078" x2="109.361" y2="223.749" stroke="black" stroke-width="1.5" stroke-linecap="round"/>
<path d="M139.604 217.31C146.531 218.299 149.641 217.31 164.345 226.217" stroke="black" stroke-width="1.5" stroke-linecap="round"/>
<path d="M143.433 122.807C133.443 119.179 110.436 120.658 98.334 155.607C90.7468 155.937 76.3639 157.134 70.4826 160.979C66.4237 163.633 63.2268 168.226 61.082 172.474C57.9949 175.692 52.4327 186.786 51.8929 190.024C51.1486 194.489 51.2201 203.736 55.1446 206.141C57.6699 207.689 59.5381 205.247 60.668 202.493C63.1617 202.995 65.7027 201.602 66.9482 199.858C67.9887 198.401 68.7632 193.786 69.4024 189.978L69.4024 189.978C69.8054 187.576 70.1546 185.496 70.4826 184.73C71.3309 182.751 76.7033 175.4 76.7033 175.4C76.5619 178.793 77.5515 186.286 81.9342 186.286C87.8721 186.286 88.0135 180.772 87.8721 173.844C87.8721 173.844 91.5349 170.373 90.6866 167.545C89.8384 164.717 95.4935 167.545 95.4935 167.545L106.097 166.414L133.665 167.545L143.986 170.514C143.986 170.514 140.31 175.745 139.179 178.29C138.048 180.834 137.866 182.682 137.907 183.521C138.079 187.055 139.677 188.75 141.486 190.281C141.868 190.605 142.282 190.956 142.726 191.375C141.595 195.192 144.14 199.292 147.109 199.575C147.109 204.665 151.633 207.351 155.875 206.503C164.074 212.299 170.364 205.051 170.719 203.392C171.143 201.413 170.436 200.141 169.447 199.151C175.385 196.465 178.495 192.789 179.202 190.386C184.065 195.928 189.805 198.538 192.067 199.151C231.794 200.847 215.96 146.276 197.581 131.573C182.878 119.81 169.023 121.676 163.933 124.08L153.47 124.734L143.433 122.807Z" fill="#FFE1D0"/>
<path d="M57.519 200.486C55.6811 198.507 55.4839 192.993 56.6149 188.469" stroke="black" stroke-width="1.5" stroke-linecap="round"/>
<path d="M87.5762 173.766C90.9693 172.635 91.252 168.252 90.2624 164.576" stroke="black" stroke-width="1.5" stroke-linecap="round"/>
<path d="M143.442 187.736C143.442 185.586 144.137 180.497 147.954 176.821" stroke="black" stroke-width="1.5" stroke-linecap="round"/>
<path d="M147.662 196.502C147.662 194.352 148.065 190.448 151.882 186.772" stroke="black" stroke-width="1.5" stroke-linecap="round"/>
<path d="M155.155 203.596C154.589 201.476 154.589 198.931 157.417 195.114" stroke="black" stroke-width="1.5" stroke-linecap="round"/>
<path d="M103.759 142.832L118.68 154.962C117.846 157.465 116.073 164.98 115.155 171.747C121.644 173.886 126.669 176.568 129.283 178.636C133.57 176.581 137.687 175.085 141.627 174.066C145.779 167.637 153.522 160.835 162.938 160.004C174.693 158.967 183.16 164.788 187.803 168.43C187.568 162.962 186.991 157.844 186.117 154.962L207.885 144.822C204.787 139.282 201.124 134.588 197.355 131.573C183.899 120.808 171.153 121.458 165.186 123.488C162.733 126.353 157.942 129.522 152.327 129.09C144.767 128.509 142.948 125.056 142.068 122.434C133.085 119.78 115.856 121.294 103.759 142.832Z" fill="white"/>
<path d="M178.906 139.694C183.996 147.894 187.474 157.932 187.813 168.111" stroke="black" stroke-width="1.5" stroke-linecap="round"/>
<path d="M121.79 145.632C119.528 150.815 115.993 160.759 115.145 171.362" stroke="black" stroke-width="1.5" stroke-linecap="round"/>
<path d="M90.9695 168.111C99.2636 168.016 118.481 170.005 129 178.714C131.403 177.3 137.341 174.388 141.865 174.048" stroke="black" stroke-width="1.5" stroke-linecap="round"/>
<path fill-rule="evenodd" clip-rule="evenodd" d="M151.769 163.949L162.082 136.388C162.082 136.388 165.334 132.571 171.131 134.974C176.927 137.378 176.22 141.76 176.22 141.76L169.348 159.961C167.393 159.801 165.262 159.799 162.938 160.004C158.846 160.365 155.071 161.854 151.769 163.949ZM141.805 190.573C142.094 190.82 142.4 191.087 142.721 191.39C141.59 195.207 144.134 199.307 147.103 199.59C147.103 203.047 149.19 205.395 151.858 206.28L150.607 209.593C150.53 209.796 150.397 209.973 150.222 210.102L140.515 217.293C139.838 217.794 138.869 217.406 138.727 216.575L136.686 204.692C136.652 204.494 136.671 204.292 136.742 204.104L141.805 190.573Z" fill="#595959"/>
</svg>
