<svg width="100" height="100" viewBox="0 0 100 100" fill="none" xmlns="http://www.w3.org/2000/svg">
<circle cx="50" cy="70" r="28.75" fill="#262626" stroke="#7DD3B5" stroke-width="2.5"/>
<circle cx="50" cy="25" r="17.75" fill="#262626" stroke="#7DD3B5" stroke-width="2.5"/>
<mask id="path-3-inside-1" fill="white">
<rect y="62" width="100" height="38" rx="2"/>
</mask>
<rect y="62" width="100" height="38" rx="2" fill="#262626" stroke="#7DD3B5" stroke-width="5" mask="url(#path-3-inside-1)"/>
<circle cx="44" cy="25" r="2" fill="#7DD3B5"/>
<circle cx="56" cy="25" r="2" fill="#7DD3B5"/>
<path d="M35.2375 70.3553C35.0888 70.4432 35 70.6044 35 70.7771L35 93.1C35 93.4923 35.4335 93.7359 35.7804 93.5528C38.1916 92.28 41.4341 91.5007 45 91.5007C48.5659 91.5007 51.8084 92.28 54.2196 93.5528C54.5665 93.7359 55 93.4923 55 93.1V70.4993C52.5328 68.9643 48.9664 68 45 68C41.1591 68 37.6933 68.9042 35.2375 70.3553Z" stroke="#7DD3B5" stroke-width="2.5"/>
<path d="M55 70.4993L55 93.1C55 93.4923 55.4335 93.7359 55.7804 93.5528C58.1916 92.28 61.4341 91.5007 65 91.5007C68.5659 91.5007 71.8084 92.28 74.2196 93.5528C74.5665 93.7359 75 93.4923 75 93.1V70.7771C75 70.6044 74.9112 70.4432 74.7625 70.3553C72.3067 68.9042 68.8409 68 65 68C61.0336 68 57.4672 68.9643 55 70.4993Z" stroke="#7DD3B5" stroke-width="2.5"/>
<path d="M23.75 69C23.75 68.4477 24.1977 68 24.75 68H29C29.5523 68 30 68.4477 30 69V89.1066C30 89.2003 29.9737 89.2921 29.924 89.3716L27.299 93.5716C27.1032 93.8849 26.6468 93.8849 26.451 93.5716L23.826 89.3716C23.7763 89.2921 23.75 89.2003 23.75 89.1066V69Z" fill="#262626" stroke="#7DD3B5" stroke-width="2.5"/>
</svg>
