<svg width="220" height="244" viewBox="0 0 220 244" fill="none" xmlns="http://www.w3.org/2000/svg">
<g filter="url(#filter0_d)">
<rect x="20" y="16" width="180" height="204" rx="10" fill="#262626"/>
</g>
<path d="M83 181C83 178.239 85.2386 176 88 176H132C134.761 176 137 178.239 137 181V195C137 197.761 134.761 200 132 200H88C85.2386 200 83 197.761 83 195V181Z" fill="#7DD3B5"/>
<path d="M103.317 184.24H99.5614V183.052H98.3254V184.24H94.5334V185.224H103.305L103.317 184.24ZM101.265 187.564C101.265 188.14 100.461 188.452 98.9494 188.452C97.4374 188.452 96.6214 188.14 96.6214 187.564C96.6214 186.988 97.4374 186.676 98.9494 186.676C100.461 186.676 101.265 186.988 101.265 187.564ZM95.3374 187.564C95.3374 188.728 96.6934 189.388 98.9494 189.388C101.205 189.388 102.561 188.728 102.561 187.564C102.561 186.4 101.205 185.752 98.9494 185.752C96.6934 185.752 95.3374 186.4 95.3374 187.564ZM103.869 190.024H94.0414V191.02H96.4654V193.96H97.7014V191.02H100.209V193.96H101.445V191.02H103.881L103.869 190.024ZM111.668 188.008C110 187.456 109.04 186.1 109.04 184.636V183.58H107.78V184.636C107.78 186.148 106.82 187.612 105.116 188.2L105.728 189.172C107.012 188.728 107.936 187.792 108.428 186.616C108.908 187.696 109.808 188.548 111.056 188.98L111.668 188.008ZM106.712 191.092H112.784V193.924H114.02V190.096H106.712V191.092ZM112.784 183.076V189.58H114.02V183.076H112.784ZM117.056 187.54C118.952 187.336 120.44 186.556 121.028 185.44C121.604 186.556 123.092 187.336 125 187.54L125.432 186.568C123.428 186.364 122.036 185.524 121.868 184.552H125.036V183.556H117.032V184.552H120.176C120.008 185.524 118.616 186.364 116.612 186.568L117.056 187.54ZM123.488 192.004C123.488 192.628 122.588 192.976 121.004 192.976C119.42 192.976 118.532 192.628 118.532 192.004C118.532 191.356 119.42 191.02 121.004 191.02C122.588 191.02 123.488 191.356 123.488 192.004ZM125.924 189.076V188.092H116.12V189.076H120.404V190.072C118.436 190.192 117.272 190.876 117.272 192.004C117.272 193.228 118.676 193.924 121.004 193.924C123.344 193.924 124.736 193.228 124.736 192.004C124.736 190.876 123.596 190.204 121.64 190.084V189.076H125.924Z" fill="#FAFAFA"/>
<circle cx="110" cy="120" r="34.75" fill="#262626" stroke="#7DD3B5" stroke-width="2.5"/>
<path d="M131.55 66C131.55 77.9017 121.902 87.5499 110 87.5499C98.0983 87.5499 88.45 77.9017 88.45 66C88.45 54.0982 98.0983 44.45 110 44.45C121.902 44.45 131.55 54.0982 131.55 66Z" fill="#262626" stroke="#7DD3B5" stroke-width="2.5"/>
<mask id="path-6-inside-1" fill="white">
<rect x="50" y="110.4" width="120" height="45.6" rx="2"/>
</mask>
<rect x="50" y="110.4" width="120" height="45.6" rx="2" fill="#262626" stroke="#7DD3B5" stroke-width="5" mask="url(#path-6-inside-1)"/>
<ellipse cx="102.8" cy="66" rx="2.4" ry="2.4" fill="#7DD3B5"/>
<ellipse cx="117.2" cy="66" rx="2.4" ry="2.4" fill="#7DD3B5"/>
<path d="M92.237 120.455C92.0886 120.543 92 120.704 92 120.877L92 147.9C92 148.292 92.4329 148.535 92.7777 148.348C95.6868 146.771 99.6422 145.801 104 145.801C108.358 145.801 112.313 146.771 115.222 148.348C115.567 148.535 116 148.292 116 147.9V120.599C113.039 118.757 108.76 117.6 104 117.6C99.3658 117.6 95.1867 118.697 92.237 120.455Z" stroke="#7DD3B5" stroke-width="2.5"/>
<path d="M116 120.599L116 147.9C116 148.292 116.433 148.535 116.778 148.348C119.687 146.771 123.642 145.801 128 145.801C132.358 145.801 136.313 146.771 139.222 148.348C139.567 148.535 140 148.292 140 147.9V120.877C140 120.704 139.911 120.543 139.763 120.455C136.813 118.697 132.634 117.6 128 117.6C123.24 117.6 118.961 118.757 116 120.599Z" stroke="#7DD3B5" stroke-width="2.5"/>
<path d="M78.5 118.6C78.5 118.048 78.9477 117.6 79.5 117.6H85C85.5523 117.6 86 118.048 86 118.6V142.957C86 143.05 85.9737 143.142 85.924 143.222L82.674 148.422C82.4782 148.735 82.0218 148.735 81.826 148.422L78.576 143.222C78.5263 143.142 78.5 143.05 78.5 142.957V118.6Z" fill="#262626" stroke="#7DD3B5" stroke-width="2.5"/>
<defs>
<filter id="filter0_d" x="0" y="0" width="220" height="244" filterUnits="userSpaceOnUse" color-interpolation-filters="sRGB">
<feFlood flood-opacity="0" result="BackgroundImageFix"/>
<feColorMatrix in="SourceAlpha" type="matrix" values="0 0 0 0 0 0 0 0 0 0 0 0 0 0 0 0 0 0 127 0"/>
<feOffset dy="4"/>
<feGaussianBlur stdDeviation="10"/>
<feColorMatrix type="matrix" values="0 0 0 0 0 0 0 0 0 0 0 0 0 0 0 0 0 0 0.5 0"/>
<feBlend mode="normal" in2="BackgroundImageFix" result="effect1_dropShadow"/>
<feBlend mode="normal" in="SourceGraphic" in2="effect1_dropShadow" result="shape"/>
</filter>
</defs>
</svg>
