<svg width="220" height="244" viewBox="0 0 220 244" fill="none" xmlns="http://www.w3.org/2000/svg">
<g filter="url(#filter0_d)">
<rect x="20" y="16" width="180" height="204" rx="10" fill="#262626"/>
</g>
<path d="M83 181C83 178.239 85.2386 176 88 176H132C134.761 176 137 178.239 137 181V195C137 197.761 134.761 200 132 200H88C85.2386 200 83 197.761 83 195V181Z" fill="#87A1E7"/>
<path d="M94.9894 189.472C96.7414 189.136 98.2534 188.104 98.9494 186.712C99.6574 188.092 101.181 189.1 102.969 189.436L103.473 188.452C101.325 188.116 99.5974 186.652 99.5974 185.02V184.996H103.041V184H94.8574V184.996H98.3014V185.02C98.3014 186.652 96.5854 188.152 94.4734 188.488L94.9894 189.472ZM99.5854 191.584V189.052H98.3374V191.584H94.0534V192.592H103.869V191.584H99.5854ZM113.792 186.196H107.588V183.472H106.352V187.204H113.792V186.196ZM107.516 190.492H106.28V193.684H113.852V192.688H107.516V190.492ZM105.08 188.5V189.496H114.92V188.5H105.08ZM117.056 187.54C118.952 187.336 120.44 186.556 121.028 185.44C121.604 186.556 123.092 187.336 125 187.54L125.432 186.568C123.428 186.364 122.036 185.524 121.868 184.552H125.036V183.556H117.032V184.552H120.176C120.008 185.524 118.616 186.364 116.612 186.568L117.056 187.54ZM123.488 192.004C123.488 192.628 122.588 192.976 121.004 192.976C119.42 192.976 118.532 192.628 118.532 192.004C118.532 191.356 119.42 191.02 121.004 191.02C122.588 191.02 123.488 191.356 123.488 192.004ZM125.924 189.076V188.092H116.12V189.076H120.404V190.072C118.436 190.192 117.272 190.876 117.272 192.004C117.272 193.228 118.676 193.924 121.004 193.924C123.344 193.924 124.736 193.228 124.736 192.004C124.736 190.876 123.596 190.204 121.64 190.084V189.076H125.924Z" fill="#FAFAFA"/>
<g clip-path="url(#clip0)">
<circle cx="110" cy="120" r="34.75" fill="#262626" stroke="#87A1E7" stroke-width="2.5"/>
<circle cx="110" cy="68.4" r="21.55" fill="#262626" stroke="#87A1E7" stroke-width="2.5"/>
<mask id="path-6-inside-1" fill="white">
<rect x="50" y="110.4" width="120" height="45.6" rx="2"/>
</mask>
<rect x="50" y="110.4" width="120" height="45.6" rx="2" fill="#262626" stroke="#87A1E7" stroke-width="5" mask="url(#path-6-inside-1)"/>
<path d="M106.4 73.2C106.4 74.8568 105.057 76.2 103.4 76.2C101.743 76.2 100.4 74.8568 100.4 73.2" stroke="#87A1E7" stroke-width="2.2" stroke-linecap="round"/>
<path d="M119.6 73.2C119.6 74.8568 118.257 76.2 116.6 76.2C114.943 76.2 113.6 74.8568 113.6 73.2" stroke="#87A1E7" stroke-width="2.2" stroke-linecap="round"/>
<path d="M135.8 50.4L140.787 53.2793C140.864 53.3239 140.849 53.4395 140.763 53.4625L133.033 55.5337C132.947 55.5568 132.932 55.6723 133.009 55.7169L137.996 58.5962" stroke="#87A1E7" stroke-width="2.5" stroke-linecap="round" stroke-linejoin="round"/>
<path d="M142.287 38.4L151.586 39.4601C151.674 39.4702 151.706 39.5823 151.637 39.6377L141.389 47.788C141.319 47.8434 141.351 47.9555 141.44 47.9656L150.738 49.0257" stroke="#87A1E7" stroke-width="2.5" stroke-linecap="round" stroke-linejoin="round"/>
<path d="M86.237 120.455C86.0886 120.543 86 120.704 86 120.877L86 147.9C86 148.292 86.4329 148.535 86.7777 148.348C89.6868 146.771 93.6422 145.801 98 145.801C102.358 145.801 106.313 146.771 109.222 148.348C109.567 148.535 110 148.292 110 147.9V120.599C107.039 118.757 102.76 117.6 98 117.6C93.3658 117.6 89.1867 118.697 86.237 120.455Z" stroke="#87A1E7" stroke-width="2.5"/>
<path d="M110 120.599L110 147.9C110 148.292 110.433 148.535 110.778 148.348C113.687 146.771 117.642 145.801 122 145.801C126.358 145.801 130.313 146.771 133.222 148.348C133.567 148.535 134 148.292 134 147.9V120.877C134 120.704 133.911 120.543 133.763 120.455C130.813 118.697 126.634 117.6 122 117.6C117.24 117.6 112.961 118.757 110 120.599Z" stroke="#87A1E7" stroke-width="2.5"/>
<path d="M79.4156 120.788C79.0756 120.353 79.1528 119.724 79.588 119.384L83.9221 115.998C84.3573 115.658 84.9857 115.735 85.3257 116.171L100.321 135.364C100.379 135.438 100.415 135.526 100.424 135.619L101.065 141.718C101.103 142.085 100.744 142.366 100.397 142.24L94.6341 140.143C94.546 140.111 94.4688 140.055 94.4111 139.981L79.4156 120.788Z" fill="#262626" stroke="#87A1E7" stroke-width="2.5"/>
<path d="M133.95 112.8C133.95 117.412 130.212 121.15 125.6 121.15C120.988 121.15 117.25 117.412 117.25 112.8C117.25 108.188 120.988 104.45 125.6 104.45C130.212 104.45 133.95 108.188 133.95 112.8Z" fill="#262626" stroke="#87A1E7" stroke-width="2.5"/>
<path d="M102.75 113.4C102.75 118.012 99.0116 121.75 94.4 121.75C89.7884 121.75 86.05 118.012 86.05 113.4C86.05 108.788 89.7884 105.05 94.4 105.05C99.0116 105.05 102.75 108.788 102.75 113.4Z" fill="#262626" stroke="#87A1E7" stroke-width="2.5"/>
</g>
<defs>
<filter id="filter0_d" x="0" y="0" width="220" height="244" filterUnits="userSpaceOnUse" color-interpolation-filters="sRGB">
<feFlood flood-opacity="0" result="BackgroundImageFix"/>
<feColorMatrix in="SourceAlpha" type="matrix" values="0 0 0 0 0 0 0 0 0 0 0 0 0 0 0 0 0 0 127 0"/>
<feOffset dy="4"/>
<feGaussianBlur stdDeviation="10"/>
<feColorMatrix type="matrix" values="0 0 0 0 0 0 0 0 0 0 0 0 0 0 0 0 0 0 0.5 0"/>
<feBlend mode="normal" in2="BackgroundImageFix" result="effect1_dropShadow"/>
<feBlend mode="normal" in="SourceGraphic" in2="effect1_dropShadow" result="shape"/>
</filter>
<clipPath id="clip0">
<rect width="120" height="120" fill="white" transform="translate(50 36)"/>
</clipPath>
</defs>
</svg>
