<svg width="100" height="100" viewBox="0 0 100 100" fill="none" xmlns="http://www.w3.org/2000/svg">
<g clip-path="url(#clip0)">
<circle cx="50" cy="70.0002" r="28.75" fill="#262626" stroke="#87A1E7" stroke-width="2.5"/>
<circle cx="50" cy="27" r="17.75" fill="#262626" stroke="#87A1E7" stroke-width="2.5"/>
<mask id="path-3-inside-1" fill="white">
<rect y="62.0002" width="100" height="38" rx="2"/>
</mask>
<rect y="62.0002" width="100" height="38" rx="2" fill="#262626" stroke="#87A1E7" stroke-width="5" mask="url(#path-3-inside-1)"/>
<path d="M47 31C47 32.3807 45.8807 33.5 44.5 33.5C43.1193 33.5 42 32.3807 42 31" stroke="#87A1E7" stroke-width="2.2" stroke-linecap="round"/>
<path d="M58 31C58 32.3807 56.8807 33.5 55.5 33.5C54.1193 33.5 53 32.3807 53 31" stroke="#87A1E7" stroke-width="2.2" stroke-linecap="round"/>
<path d="M71.5 12L75.621 14.3793C75.6982 14.4238 75.683 14.5394 75.5969 14.5625L69.2332 16.2676C69.1471 16.2907 69.1319 16.4063 69.2091 16.4508L73.3301 18.8301" stroke="#87A1E7" stroke-width="2.5" stroke-linecap="round" stroke-linejoin="round"/>
<path d="M76.9062 2L84.6149 2.87885C84.7034 2.88894 84.7355 3.00102 84.6658 3.05647L76.189 9.79824C76.1193 9.85369 76.1514 9.96577 76.2399 9.97586L83.9486 10.8547" stroke="#87A1E7" stroke-width="2.5" stroke-linecap="round" stroke-linejoin="round"/>
<path d="M30.2375 70.3556C30.0888 70.4434 30 70.6046 30 70.7774L30 93.1003C30 93.4925 30.4335 93.7361 30.7804 93.553C33.1916 92.2803 36.4341 91.5009 40 91.5009C43.5659 91.5009 46.8084 92.2803 49.2196 93.553C49.5665 93.7361 50 93.4925 50 93.1003V70.4996C47.5328 68.9646 43.9664 68.0002 40 68.0002C36.1591 68.0002 32.6933 68.9045 30.2375 70.3556Z" stroke="#87A1E7" stroke-width="2.5"/>
<path d="M50 70.4996L50 93.1003C50 93.4925 50.4335 93.7361 50.7804 93.553C53.1916 92.2803 56.4341 91.5009 60 91.5009C63.5659 91.5009 66.8084 92.2803 69.2196 93.553C69.5665 93.7361 70 93.4925 70 93.1003V70.7774C70 70.6046 69.9112 70.4434 69.7625 70.3556C67.3067 68.9045 63.8409 68.0002 60 68.0002C56.0336 68.0002 52.4672 68.9646 50 70.4996Z" stroke="#87A1E7" stroke-width="2.5"/>
<path d="M24.6157 70.788C24.2756 70.3528 24.3528 69.7244 24.788 69.3843L28.1371 66.7678C28.5723 66.4278 29.2007 66.5049 29.5407 66.9401L41.9196 82.7843C41.9773 82.8582 42.0131 82.9468 42.0228 83.04L42.5401 87.9657C42.5787 88.3332 42.2191 88.6141 41.8719 88.4878L37.2176 86.7943C37.1295 86.7622 37.0522 86.7061 36.9945 86.6322L24.6157 70.788Z" fill="#262626" stroke="#87A1E7" stroke-width="2.5"/>
<circle cx="63" cy="64" r="6.75" fill="#262626" stroke="#87A1E7" stroke-width="2.5"/>
<circle cx="37" cy="64.5" r="6.75" fill="#262626" stroke="#87A1E7" stroke-width="2.5"/>
</g>
<defs>
<clipPath id="clip0">
<rect width="100" height="100" fill="white"/>
</clipPath>
</defs>
</svg>
