<svg width="220" height="244" viewBox="0 0 220 244" fill="none" xmlns="http://www.w3.org/2000/svg">
<g filter="url(#filter0_d)">
<rect x="20" y="16" width="180" height="204" rx="10" fill="#262626"/>
</g>
<path d="M78 181C78 178.239 80.2386 176 83 176H138C140.761 176 143 178.239 143 181V195C143 197.761 140.761 200 138 200H83C80.2386 200 78 197.761 78 195V181Z" fill="#E58389"/>
<path d="M98.4299 188.38C96.2939 187.996 94.5539 186.328 94.5539 184.6V183.784H93.2459V184.6C93.2459 186.316 91.5059 187.984 89.3699 188.38L89.8979 189.4C91.6619 189.04 93.1859 187.912 93.8939 186.424C94.6019 187.912 96.1259 189.04 97.8899 189.4L98.4299 188.38ZM89.0339 191.512V192.532H98.8499V191.512H89.0339ZM101.669 185.128H104.297V190.24H101.669V185.128ZM100.445 191.224H105.521V184.144H100.445V191.224ZM110.153 187.324H108.461V183.088H107.225V193.936H108.461V188.344H110.153V187.324ZM119.836 188.812H113.584V187.324H119.512V186.352H113.584V184.96H119.752V183.964H112.324V189.808H119.836V188.812ZM111.112 191.584V192.592H120.94V191.584H111.112ZM124.623 190.696H123.375V193.72H130.851V192.712H124.623V190.696ZM125.787 184.54H128.283V186.712H125.787V184.54ZM127.659 188.86V187.708H130.983V186.712H129.519V184.54H131.043V183.544H123.015V184.54H124.551V186.712H123.075V187.708H126.411V188.86H122.127V189.868H131.955V188.86H127.659Z" fill="#FAFAFA"/>
<circle cx="110" cy="120" r="34.75" fill="#262626" stroke="#E58389" stroke-width="2.5"/>
<circle cx="110" cy="68.4" r="21.55" fill="#262626" stroke="#E58389" stroke-width="2.5"/>
<mask id="path-6-inside-1" fill="white">
<rect x="50" y="110.4" width="120" height="45.6" rx="2"/>
</mask>
<rect x="50" y="110.4" width="120" height="45.6" rx="2" fill="#262626" stroke="#E58389" stroke-width="5" mask="url(#path-6-inside-1)"/>
<ellipse cx="102.8" cy="75.6" rx="2.4" ry="2.4" fill="#E58389"/>
<ellipse cx="117.2" cy="75.6" rx="2.4" ry="2.4" fill="#E58389"/>
<rect x="100.4" y="95.4" width="19.2" height="33.6" rx="1" fill="#262626" stroke="#E58389" stroke-width="2.5"/>
<path d="M132.75 114C132.75 118.612 129.012 122.35 124.4 122.35C119.788 122.35 116.05 118.612 116.05 114C116.05 109.388 119.788 105.65 124.4 105.65C129.012 105.65 132.75 109.388 132.75 114Z" fill="#262626" stroke="#E58389" stroke-width="2.5"/>
<path d="M103.95 114C103.95 118.612 100.212 122.35 95.6 122.35C90.9884 122.35 87.25 118.612 87.25 114C87.25 109.388 90.9884 105.65 95.6 105.65C100.212 105.65 103.95 109.388 103.95 114Z" fill="#262626" stroke="#E58389" stroke-width="2.5"/>
<defs>
<filter id="filter0_d" x="0" y="0" width="220" height="244" filterUnits="userSpaceOnUse" color-interpolation-filters="sRGB">
<feFlood flood-opacity="0" result="BackgroundImageFix"/>
<feColorMatrix in="SourceAlpha" type="matrix" values="0 0 0 0 0 0 0 0 0 0 0 0 0 0 0 0 0 0 127 0"/>
<feOffset dy="4"/>
<feGaussianBlur stdDeviation="10"/>
<feColorMatrix type="matrix" values="0 0 0 0 0 0 0 0 0 0 0 0 0 0 0 0 0 0 0.5 0"/>
<feBlend mode="normal" in2="BackgroundImageFix" result="effect1_dropShadow"/>
<feBlend mode="normal" in="SourceGraphic" in2="effect1_dropShadow" result="shape"/>
</filter>
</defs>
</svg>
