<svg width="160" height="160" viewBox="0 0 160 160" fill="none" xmlns="http://www.w3.org/2000/svg">
<rect x="38.1133" y="16.1127" width="58.8169" height="99.3803" rx="3" stroke="#E58389" stroke-width="4"/>
<rect x="30" y="8" width="75.0423" height="131.831" rx="3" stroke="#E58389" stroke-width="4"/>
<circle cx="67.0145" cy="127.662" r="4.56338" stroke="#E58389" stroke-width="4"/>
<path d="M86.7891 129.765C86.7891 117.615 96.6388 107.765 108.789 107.765C120.939 107.765 130.789 117.615 130.789 129.765V152.789H108.789C96.6388 152.789 86.7891 142.939 86.7891 130.789V129.765Z" fill="#262626" stroke="#E58389" stroke-width="4"/>
<path d="M129.766 130.277V87.3003C129.766 74.8675 119.687 64.7887 107.254 64.7887V130.277H129.766Z" fill="#262626"/>
<path d="M101 86C95.4772 86 91 90.7469 91 96.6024V118H111V96.6024C111 90.7469 106.523 86 101 86Z" fill="#262626"/>
<path d="M90.8828 116.975V96.448C90.8828 90.8308 95.4641 86.2771 101.115 86.2771C106.767 86.2771 111.348 90.8308 111.348 96.448V116.975" stroke="#E58389" stroke-width="4" stroke-linecap="round"/>
<path d="M107.254 64.7887V64.7887C120.252 64.7887 130.789 75.3256 130.789 88.3236V130.277" stroke="#E58389" stroke-width="4" stroke-linecap="round"/>
</svg>
