<svg width="22" height="22" viewBox="0 0 22 22" fill="none" xmlns="http://www.w3.org/2000/svg">
<circle cx="10.9993" cy="11.0001" r="10.0833" fill="#ACD3E9"/>
<path d="M4.82682 7.98835C4.67306 8.06901 4.58398 8.23208 4.58398 8.40572L4.58398 14.6885C4.58398 15.0797 5.02235 15.3326 5.38886 15.1959C6.07628 14.9396 6.90295 14.7902 7.79232 14.7902C8.68168 14.7902 9.50836 14.9396 10.1958 15.1959C10.5623 15.3326 11.0007 15.0797 11.0007 14.6885V8.40572C11.0007 8.23208 10.9116 8.06901 10.7578 7.98835C9.98344 7.58216 8.94009 7.33325 7.79232 7.33325C6.64455 7.33325 5.60119 7.58216 4.82682 7.98835Z" stroke="white" stroke-width="1.5"/>
<path d="M11.2428 7.98835C11.0891 8.06901 11 8.23208 11 8.40572L11 14.6885C11 15.0797 11.4384 15.3326 11.8049 15.1959C12.4923 14.9396 13.319 14.7902 14.2083 14.7902C15.0977 14.7902 15.9244 14.9396 16.6118 15.1959C16.9783 15.3326 17.4167 15.0797 17.4167 14.6885V8.40572C17.4167 8.23208 17.3276 8.06901 17.1738 7.98835C16.3995 7.58216 15.3561 7.33325 14.2083 7.33325C13.0606 7.33325 12.0172 7.58216 11.2428 7.98835Z" stroke="white" stroke-width="1.5"/>
</svg>
