<svg width="100" height="100" viewBox="0 0 100 100" fill="none" xmlns="http://www.w3.org/2000/svg">
<g clip-path="url(#clip0)">
<path d="M26.9168 23.2215C26.6296 23.2472 26.3801 23.0253 26.3723 22.737L26.2656 18.8029C26.2578 18.5146 26.4948 18.2795 26.7831 18.2897L35.795 18.608C36.0589 18.6173 36.27 18.8302 36.2772 19.0941L36.3534 21.9036C36.3605 22.1676 36.1612 22.3916 35.8983 22.4152L26.9168 23.2215Z" fill="#262626" stroke="#8280F5" stroke-width="2.5"/>
<path d="M27.8991 14.3878C27.6828 14.197 27.6724 13.8632 27.8763 13.6593L30.6592 10.8765C30.8631 10.6725 31.1968 10.6829 31.3877 10.8992L37.3539 17.6609C37.5286 17.8589 37.5192 18.1586 37.3325 18.3453L35.3452 20.3326C35.1585 20.5193 34.8588 20.5287 34.6608 20.354L27.8991 14.3878Z" fill="#262626" stroke="#8280F5" stroke-width="2.5"/>
<circle cx="50" cy="70" r="28.75" fill="#262626" stroke="#8280F5" stroke-width="2.5"/>
<circle cx="50" cy="27" r="17.75" fill="#262626" stroke="#8280F5" stroke-width="2.5"/>
<mask id="path-5-inside-1" fill="white">
<rect y="62" width="100" height="38" rx="2"/>
</mask>
<rect y="62" width="100" height="38" rx="2" fill="#262626" stroke="#8280F5" stroke-width="5" mask="url(#path-5-inside-1)"/>
<path d="M30 70.4993L30 93.1C30 93.4923 30.4335 93.7359 30.7804 93.5528C33.1916 92.28 36.4341 91.5007 40 91.5007C43.5659 91.5007 46.8084 92.28 49.2196 93.5528C49.5665 93.7359 50 93.4923 50 93.1V70.4993C47.5328 68.9643 43.9664 68 40 68C36.0336 68 32.4672 68.9643 30 70.4993Z" stroke="#8280F5" stroke-width="2.5"/>
<path d="M50 70.4993L50 93.1C50 93.4923 50.4335 93.7359 50.7804 93.5528C53.1916 92.28 56.4341 91.5007 60 91.5007C63.5659 91.5007 66.8084 92.28 69.2196 93.5528C69.5665 93.7359 70 93.4923 70 93.1V70.4993C67.5328 68.9643 63.9664 68 60 68C56.0336 68 52.4672 68.9643 50 70.4993Z" stroke="#8280F5" stroke-width="2.5"/>
<circle cx="44" cy="32" r="2" fill="#8280F5"/>
<circle cx="56" cy="32" r="2" fill="#8280F5"/>
<circle cx="68" cy="66.5" r="6.75" fill="#262626" stroke="#8280F5" stroke-width="2.5"/>
<path d="M35.5 17L64.5 17" stroke="#8280F5" stroke-width="2.5" stroke-linecap="round"/>
<line x1="33.25" y1="21.75" x2="66.75" y2="21.75" stroke="#8280F5" stroke-width="2.5" stroke-linecap="round"/>
<path d="M30.4226 54.5479C30.1892 54.0474 30.4058 53.4524 30.9063 53.219L34.7581 51.4229C35.2587 51.1895 35.8536 51.406 36.087 51.9065L44.5845 70.1293C44.6241 70.2142 44.639 70.3086 44.6276 70.4016L44.0235 75.3175C43.9784 75.6842 43.5649 75.8771 43.255 75.6759L39.1009 72.9787C39.0223 72.9277 38.9596 72.8556 38.92 72.7707L30.4226 54.5479Z" fill="#262626" stroke="#8280F5" stroke-width="2.5"/>
<circle cx="32" cy="67" r="6.75" fill="#262626" stroke="#8280F5" stroke-width="2.5"/>
</g>
<defs>
<clipPath id="clip0">
<rect width="100" height="100" fill="white"/>
</clipPath>
</defs>
</svg>
