<svg width="220" height="244" viewBox="0 0 220 244" fill="none" xmlns="http://www.w3.org/2000/svg">
<g filter="url(#filter0_d)">
<rect x="20" y="16" width="180" height="204" rx="10" fill="#262626"/>
</g>
<path d="M83 181C83 178.239 85.2386 176 88 176H132C134.761 176 137 178.239 137 181V195C137 197.761 134.761 200 132 200H88C85.2386 200 83 197.761 83 195V181Z" fill="#8280F5"/>
<path d="M102.333 187.396C102.633 186.28 102.633 185.38 102.633 184.516V183.604H95.1934V184.6H101.409C101.409 185.416 101.397 186.196 101.121 187.264L102.333 187.396ZM98.9134 192.976C97.3054 192.976 96.3214 192.58 96.3214 191.896C96.3214 191.224 97.3054 190.828 98.9134 190.828C100.509 190.828 101.469 191.224 101.469 191.896C101.469 192.58 100.509 192.976 98.9134 192.976ZM98.9134 189.88C96.5734 189.88 95.0974 190.648 95.0974 191.896C95.0974 193.156 96.5734 193.924 98.9134 193.924C101.217 193.924 102.705 193.156 102.705 191.896C102.705 190.648 101.217 189.88 98.9134 189.88ZM99.1534 188.044V186.052H97.9054V188.044H94.0654V189.04H103.833V188.044H99.1534ZM112.46 187.252H107.504V185.872H112.46V187.252ZM113.696 183.508H112.46V184.876H107.504V183.508H106.268V188.248H113.696V183.508ZM114.908 189.424H105.08V190.42H109.34V193.936H110.576V190.42H114.908V189.424ZM117.056 187.54C118.952 187.336 120.44 186.556 121.028 185.44C121.604 186.556 123.092 187.336 125 187.54L125.432 186.568C123.428 186.364 122.036 185.524 121.868 184.552H125.036V183.556H117.032V184.552H120.176C120.008 185.524 118.616 186.364 116.612 186.568L117.056 187.54ZM123.488 192.004C123.488 192.628 122.588 192.976 121.004 192.976C119.42 192.976 118.532 192.628 118.532 192.004C118.532 191.356 119.42 191.02 121.004 191.02C122.588 191.02 123.488 191.356 123.488 192.004ZM125.924 189.076V188.092H116.12V189.076H120.404V190.072C118.436 190.192 117.272 190.876 117.272 192.004C117.272 193.228 118.676 193.924 121.004 193.924C123.344 193.924 124.736 193.228 124.736 192.004C124.736 190.876 123.596 190.204 121.64 190.084V189.076H125.924Z" fill="#FAFAFA"/>
<g clip-path="url(#clip0)">
<path d="M82.193 63.8753C81.9057 63.9011 81.6563 63.6791 81.6485 63.3908L81.5147 58.4571C81.5069 58.1688 81.7439 57.9337 82.0321 57.9438L93.0467 58.3329C93.3106 58.3422 93.5217 58.5551 93.5289 58.819L93.6254 62.3783C93.6326 62.6422 93.4333 62.8662 93.1703 62.8898L82.193 63.8753Z" fill="#262626" stroke="#8280F5" stroke-width="2.5"/>
<path d="M83.3991 53.1949C83.1828 53.0041 83.1724 52.6704 83.3763 52.4664L86.8663 48.9765C87.0702 48.7725 87.404 48.783 87.5948 48.9992L94.8868 57.2635C95.0615 57.4615 95.0521 57.7612 94.8654 57.9479L92.3478 60.4656C92.1611 60.6523 91.8614 60.6616 91.6634 60.4869L83.3991 53.1949Z" fill="#262626" stroke="#8280F5" stroke-width="2.5"/>
<circle cx="110" cy="120" r="34.75" fill="#262626" stroke="#8280F5" stroke-width="2.5"/>
<circle cx="110" cy="68.4" r="21.55" fill="#262626" stroke="#8280F5" stroke-width="2.5"/>
<mask id="path-8-inside-1" fill="white">
<rect x="50" y="110.4" width="120" height="45.6" rx="2"/>
</mask>
<rect x="50" y="110.4" width="120" height="45.6" rx="2" fill="#262626" stroke="#8280F5" stroke-width="5" mask="url(#path-8-inside-1)"/>
<path d="M86 120.599L86 147.9C86 148.292 86.4329 148.535 86.7777 148.348C89.6868 146.771 93.6422 145.801 98 145.801C102.358 145.801 106.313 146.771 109.222 148.348C109.567 148.535 110 148.292 110 147.9V120.599C107.039 118.757 102.76 117.6 98 117.6C93.2403 117.6 88.9606 118.757 86 120.599Z" stroke="#8280F5" stroke-width="2.5"/>
<path d="M110 120.599L110 147.9C110 148.292 110.433 148.535 110.778 148.348C113.687 146.771 117.642 145.801 122 145.801C126.358 145.801 130.313 146.771 133.222 148.348C133.567 148.535 134 148.292 134 147.9V120.599C131.039 118.757 126.76 117.6 122 117.6C117.24 117.6 112.961 118.757 110 120.599Z" stroke="#8280F5" stroke-width="2.5"/>
<ellipse cx="102.8" cy="74.4" rx="2.4" ry="2.4" fill="#8280F5"/>
<ellipse cx="117.2" cy="74.4" rx="2.4" ry="2.4" fill="#8280F5"/>
<path d="M139.95 115.8C139.95 120.412 136.212 124.15 131.6 124.15C126.988 124.15 123.25 120.412 123.25 115.8C123.25 111.188 126.988 107.45 131.6 107.45C136.212 107.45 139.95 111.188 139.95 115.8Z" fill="#262626" stroke="#8280F5" stroke-width="2.5"/>
<path d="M92.6 56.4L127.4 56.4" stroke="#8280F5" stroke-width="2.5" stroke-linecap="round"/>
<line x1="89.65" y1="62.35" x2="130.35" y2="62.35" stroke="#8280F5" stroke-width="2.5" stroke-linecap="round"/>
<path d="M86.4226 101.276C86.1892 100.776 86.4058 100.181 86.9063 99.9473L91.891 97.6229C92.3915 97.3894 92.9865 97.606 93.2199 98.1065L103.513 120.181C103.553 120.266 103.568 120.36 103.557 120.453L102.809 126.54C102.764 126.906 102.35 127.099 102.04 126.898L96.897 123.559C96.8184 123.508 96.7558 123.436 96.7162 123.351L86.4226 101.276Z" fill="#262626" stroke="#8280F5" stroke-width="2.5"/>
<path d="M96.75 116.4C96.75 121.012 93.0116 124.75 88.4 124.75C83.7884 124.75 80.05 121.012 80.05 116.4C80.05 111.788 83.7884 108.05 88.4 108.05C93.0116 108.05 96.75 111.788 96.75 116.4Z" fill="#262626" stroke="#8280F5" stroke-width="2.5"/>
</g>
<defs>
<filter id="filter0_d" x="0" y="0" width="220" height="244" filterUnits="userSpaceOnUse" color-interpolation-filters="sRGB">
<feFlood flood-opacity="0" result="BackgroundImageFix"/>
<feColorMatrix in="SourceAlpha" type="matrix" values="0 0 0 0 0 0 0 0 0 0 0 0 0 0 0 0 0 0 127 0"/>
<feOffset dy="4"/>
<feGaussianBlur stdDeviation="10"/>
<feColorMatrix type="matrix" values="0 0 0 0 0 0 0 0 0 0 0 0 0 0 0 0 0 0 0.5 0"/>
<feBlend mode="normal" in2="BackgroundImageFix" result="effect1_dropShadow"/>
<feBlend mode="normal" in="SourceGraphic" in2="effect1_dropShadow" result="shape"/>
</filter>
<clipPath id="clip0">
<rect width="120" height="120" fill="white" transform="translate(50 36)"/>
</clipPath>
</defs>
</svg>
