<svg width="22" height="22" viewBox="0 0 22 22" fill="none" xmlns="http://www.w3.org/2000/svg">
<ellipse cx="10.9993" cy="11.9166" rx="7.33333" ry="7.33333" fill="url(#paint0_linear)"/>
<path fill-rule="evenodd" clip-rule="evenodd" d="M2.59347 2.90719C1.40361 4.09706 1.20247 5.90124 1.99006 7.2988C2.2612 7.77994 2.91006 7.77606 3.30058 7.38554L7.07182 3.6143C7.46234 3.22378 7.46622 2.57492 6.98508 2.30378C5.58752 1.51619 3.78334 1.71733 2.59347 2.90719ZM4.58408 11.9166C4.58408 8.37247 7.45663 5.49992 11.0007 5.49992C14.5449 5.49992 17.4174 8.37247 17.4174 11.9166C17.4174 15.4607 14.5449 18.3333 11.0007 18.3333C7.45663 18.3333 4.58408 15.4607 4.58408 11.9166ZM11.0007 3.66659C6.44411 3.66659 2.75075 7.35995 2.75075 11.9166C2.75075 16.4732 6.44411 20.1666 11.0007 20.1666C15.5574 20.1666 19.2507 16.4732 19.2507 11.9166C19.2507 7.35995 15.5574 3.66659 11.0007 3.66659ZM11.6493 8.6241C11.6493 8.11784 11.2389 7.70744 10.7326 7.70744C10.2264 7.70744 9.81597 8.11784 9.81597 8.6241V12.4668C9.81597 12.7896 9.98578 13.0886 10.263 13.254L13.2518 15.037C13.6866 15.2964 14.2493 15.1542 14.5087 14.7194C14.7681 14.2846 14.6259 13.7219 14.1911 13.4625L11.6493 11.9462V8.6241ZM20.0557 7.29011C20.822 5.89377 20.6233 4.0946 19.4594 2.90719C18.2956 1.71979 16.532 1.51703 15.1634 2.2989C14.6863 2.57141 14.6902 3.22693 15.0767 3.62134L18.7594 7.37849C19.146 7.77291 19.7885 7.77679 20.0557 7.29011Z" fill="url(#paint1_linear)"/>
<defs>
<linearGradient id="paint0_linear" x1="10.9993" y1="4.58325" x2="10.9993" y2="19.2499" gradientUnits="userSpaceOnUse">
<stop stop-color="#F6F9FF"/>
<stop offset="1" stop-color="#D7E1F5"/>
</linearGradient>
<linearGradient id="paint1_linear" x1="11.0158" y1="1.83325" x2="11.0158" y2="20.1666" gradientUnits="userSpaceOnUse">
<stop stop-color="#889BFF"/>
<stop offset="1" stop-color="#7455EF"/>
</linearGradient>
</defs>
</svg>
