<svg width="16" height="16" viewBox="0 0 16 16" fill="none" xmlns="http://www.w3.org/2000/svg">
<path d="M7.57516 9.87171C8.24602 9.42609 8.7556 8.77633 9.02847 8.01858C9.30134 7.26084 9.32301 6.43538 9.09027 5.66436C8.85753 4.89334 8.38274 4.21774 7.73619 3.73754C7.08963 3.25734 6.30564 2.99805 5.50027 2.99805C4.69489 2.99805 3.91091 3.25734 3.26435 3.73754C2.61779 4.21774 2.14301 4.89334 1.91027 5.66436C1.67753 6.43538 1.69919 7.26084 1.97207 8.01858C2.24494 8.77633 2.75451 9.42609 3.42537 9.87171C2.28175 10.2936 1.29334 11.053 0.591152 12.0494C0.538434 12.1243 0.507295 12.2122 0.501133 12.3036C0.494971 12.395 0.514022 12.4863 0.556208 12.5676C0.598394 12.6489 0.662094 12.717 0.740359 12.7646C0.818623 12.8121 0.908446 12.8373 1.00003 12.8373L10.0003 12.8369C10.0919 12.8369 10.1817 12.8118 10.26 12.7642C10.3382 12.7166 10.4019 12.6485 10.4441 12.5672C10.4863 12.4859 10.5053 12.3946 10.4991 12.3032C10.493 12.2119 10.4618 12.1239 10.4091 12.0491C9.70692 11.0529 8.71862 10.2935 7.57516 9.87171Z" fill="#F0F0F0"/>
<path d="M15.5035 12.0491C14.8014 11.0529 13.8131 10.2935 12.6696 9.87172C13.413 9.37682 13.9555 8.63283 14.1992 7.77363C14.443 6.91443 14.3721 5.99643 13.9994 5.18483C13.6266 4.37323 12.9764 3.72132 12.1658 3.34641C11.3552 2.9715 10.4374 2.8982 9.57752 3.13971C9.49946 3.16167 9.42791 3.20228 9.36904 3.25804C9.31017 3.3138 9.26575 3.38305 9.2396 3.4598C9.21345 3.53656 9.20636 3.61852 9.21895 3.69863C9.23153 3.77874 9.26341 3.85458 9.31183 3.91962C9.87705 4.67887 10.202 5.58997 10.2448 6.53553C10.2875 7.4811 10.0462 8.41782 9.55188 9.22501C9.4866 9.33146 9.46351 9.45849 9.48717 9.5811C9.51082 9.70372 9.5795 9.81304 9.67969 9.88758C9.86927 10.0287 10.0517 10.1792 10.2262 10.3385C10.2352 10.3483 10.2443 10.358 10.2542 10.3673C10.9216 10.9842 11.4625 11.7252 11.8467 12.5488C11.8869 12.635 11.9509 12.708 12.0312 12.7591C12.1114 12.8102 12.2046 12.8373 12.2997 12.8373L15.0948 12.8369C15.1864 12.8369 15.2762 12.8118 15.3544 12.7642C15.4327 12.7166 15.4964 12.6485 15.5385 12.5672C15.5807 12.4859 15.5998 12.3946 15.5936 12.3032C15.5874 12.2119 15.5563 12.124 15.5035 12.0491L15.5035 12.0491Z" fill="#F0F0F0"/>
</svg>
