<svg width="26" height="26" viewBox="0 0 26 26" fill="none" xmlns="http://www.w3.org/2000/svg">
<rect x="1" y="2" width="24" height="18" rx="2" fill="#9290FB" stroke="#5C5ADD" stroke-width="2"/>
<path d="M12.4687 13.4422C13.3073 12.8851 13.9443 12.0729 14.2853 11.1258C14.6264 10.1786 14.6535 9.14676 14.3626 8.18299C14.0717 7.21922 13.4782 6.37472 12.67 5.77446C11.8618 5.17421 10.8818 4.8501 9.87509 4.8501C8.86837 4.8501 7.88839 5.17421 7.08019 5.77446C6.27199 6.37472 5.67851 7.21922 5.38759 8.18299C5.09666 9.14676 5.12375 10.1786 5.46484 11.1258C5.80593 12.0729 6.44289 12.8851 7.28147 13.4422C5.85194 13.9695 4.61643 14.9188 3.7387 16.1643C3.6728 16.2579 3.63388 16.3678 3.62617 16.4821C3.61847 16.5963 3.64228 16.7104 3.69502 16.812C3.74775 16.9136 3.82737 16.9988 3.9252 17.0582C4.02304 17.1177 4.13531 17.1491 4.24979 17.1491L15.5001 17.1487C15.6146 17.1487 15.7269 17.1173 15.8247 17.0578C15.9225 16.9983 16.0022 16.9132 16.0549 16.8115C16.1076 16.7099 16.1314 16.5958 16.1237 16.4816C16.116 16.3674 16.077 16.2575 16.0111 16.1639C15.1334 14.9186 13.898 13.9695 12.4687 13.4422Z" fill="#3C39C0"/>
<path d="M22.3799 16.1639C21.5022 14.9186 20.2668 13.9695 18.8375 13.4422C19.7668 12.8236 20.4448 11.8936 20.7495 10.8196C21.0543 9.74558 20.9657 8.59808 20.4997 7.58358C20.0337 6.56908 19.221 5.75419 18.2077 5.28555C17.1944 4.81691 16.0472 4.72529 14.9724 5.02718C14.8748 5.05462 14.7854 5.10538 14.7118 5.17509C14.6382 5.24479 14.5827 5.33135 14.55 5.4273C14.5173 5.52324 14.5084 5.6257 14.5242 5.72583C14.5399 5.82596 14.5797 5.92076 14.6403 6.00206C15.3468 6.95113 15.753 8.09 15.8064 9.27196C15.8599 10.4539 15.5583 11.6248 14.9403 12.6338C14.8587 12.7669 14.8299 12.9257 14.8594 13.0789C14.889 13.2322 14.9749 13.3688 15.1001 13.462C15.3371 13.6384 15.5651 13.8265 15.7832 14.0257C15.7945 14.0379 15.8058 14.0501 15.8183 14.0616C16.6525 14.8328 17.3286 15.759 17.8088 16.7886C17.8591 16.8963 17.9391 16.9875 18.0395 17.0514C18.1398 17.1152 18.2562 17.1492 18.3752 17.1491L21.869 17.1487C21.9834 17.1487 22.0957 17.1173 22.1935 17.0578C22.2914 16.9983 22.371 16.9132 22.4237 16.8115C22.4764 16.7099 22.5002 16.5958 22.4925 16.4816C22.4848 16.3674 22.4458 16.2575 22.3799 16.1639L22.3799 16.1639Z" fill="#3C39C0"/>
<rect x="7" y="24" width="12" height="2" rx="1" fill="#5C5ADD"/>
<rect x="10" y="20" width="6" height="5" fill="#5C5ADD"/>
</svg>
