<svg width="24" height="24" viewBox="0 0 24 24" fill="none" xmlns="http://www.w3.org/2000/svg">
<path d="M13.125 12C13.125 12.2225 13.059 12.44 12.9354 12.625C12.8118 12.81 12.6361 12.9542 12.4305 13.0394C12.225 13.1245 11.9988 13.1468 11.7805 13.1034C11.5623 13.06 11.3618 12.9528 11.2045 12.7955C11.0472 12.6382 10.94 12.4377 10.8966 12.2195C10.8532 12.0012 10.8755 11.775 10.9606 11.5695C11.0458 11.3639 11.19 11.1882 11.375 11.0646C11.56 10.941 11.7775 10.875 12 10.875C12.2984 10.875 12.5845 10.9935 12.7955 11.2045C13.0065 11.4155 13.125 11.7016 13.125 12ZM12 8.125C12.2225 8.125 12.44 8.05902 12.625 7.9354C12.81 7.81179 12.9542 7.63609 13.0394 7.43052C13.1245 7.22495 13.1468 6.99875 13.1034 6.78052C13.06 6.5623 12.9528 6.36184 12.7955 6.20451C12.6382 6.04717 12.4377 5.94003 12.2195 5.89662C12.0012 5.85321 11.775 5.87549 11.5695 5.96064C11.3639 6.04578 11.1882 6.18998 11.0646 6.37498C10.941 6.55999 10.875 6.7775 10.875 7C10.875 7.29837 10.9935 7.58452 11.2045 7.7955C11.4155 8.00647 11.7016 8.125 12 8.125ZM12 15.875C11.7775 15.875 11.56 15.941 11.375 16.0646C11.19 16.1882 11.0458 16.3639 10.9606 16.5695C10.8755 16.775 10.8532 17.0012 10.8966 17.2195C10.94 17.4377 11.0472 17.6382 11.2045 17.7955C11.3618 17.9528 11.5623 18.06 11.7805 18.1034C11.9988 18.1468 12.225 18.1245 12.4305 18.0394C12.6361 17.9542 12.8118 17.81 12.9354 17.625C13.059 17.44 13.125 17.2225 13.125 17C13.125 16.7016 13.0065 16.4155 12.7955 16.2045C12.5845 15.9935 12.2984 15.875 12 15.875Z" fill="white"/>
</svg>
