<svg width="20" height="20" viewBox="0 0 20 20" fill="none" xmlns="http://www.w3.org/2000/svg">
<path d="M9.46846 12.3396C10.307 11.7826 10.944 10.9704 11.2851 10.0232C11.6262 9.07605 11.6533 8.04422 11.3623 7.08045C11.0714 6.11668 10.4779 5.27218 9.66974 4.67192C8.86154 4.07167 7.88157 3.74756 6.87484 3.74756C5.86812 3.74756 4.88815 4.07167 4.07995 4.67192C3.27175 5.27218 2.67827 6.11668 2.38734 7.08045C2.09642 8.04422 2.12351 9.07605 2.46459 10.0232C2.80568 10.9704 3.44265 11.7826 4.28123 12.3396C2.8517 12.867 1.61618 13.8163 0.738452 15.0618C0.672554 15.1554 0.633631 15.2653 0.625928 15.3795C0.618226 15.4937 0.64204 15.6079 0.694772 15.7095C0.747504 15.8111 0.82713 15.8963 0.92496 15.9557C1.02279 16.0152 1.13507 16.0466 1.24955 16.0466L12.4999 16.0462C12.6144 16.0462 12.7266 16.0147 12.8245 15.9553C12.9223 15.8958 13.0019 15.8106 13.0546 15.709C13.1074 15.6074 13.1312 15.4933 13.1234 15.379C13.1157 15.2648 13.0768 15.1549 13.0109 15.0613C12.1332 13.8161 10.8978 12.8669 9.46846 12.3396Z" fill="white"/>
<path d="M19.3799 15.0613C18.5022 13.8161 17.2668 12.8669 15.8375 12.3397C16.7668 11.721 17.4448 10.791 17.7495 9.71704C18.0543 8.64304 17.9657 7.49554 17.4997 6.48104C17.0337 5.46654 16.221 4.65165 15.2077 4.18301C14.1944 3.71437 13.0472 3.62275 11.9724 3.92464C11.8748 3.95208 11.7854 4.00285 11.7118 4.07255C11.6382 4.14225 11.5827 4.22881 11.55 4.32476C11.5173 4.4207 11.5084 4.52316 11.5242 4.62329C11.5399 4.72342 11.5797 4.81822 11.6403 4.89953C12.3468 5.84859 12.753 6.98746 12.8064 8.16942C12.8599 9.35138 12.5583 10.5223 11.9403 11.5313C11.8587 11.6643 11.8299 11.8231 11.8594 11.9764C11.889 12.1296 11.9749 12.2663 12.1001 12.3595C12.3371 12.5358 12.5651 12.7239 12.7832 12.9231C12.7945 12.9354 12.8058 12.9475 12.8183 12.9591C13.6525 13.7303 14.3286 14.6565 14.8088 15.686C14.8591 15.7938 14.9391 15.885 15.0395 15.9488C15.1398 16.0127 15.2562 16.0466 15.3752 16.0466L18.869 16.0462C18.9834 16.0462 19.0957 16.0147 19.1935 15.9553C19.2913 15.8958 19.371 15.8106 19.4237 15.709C19.4764 15.6074 19.5002 15.4933 19.4925 15.379C19.4848 15.2648 19.4458 15.1549 19.3799 15.0613L19.3799 15.0613Z" fill="white"/>
</svg>
