<svg width="480" height="180" viewBox="0 0 480 180" fill="none" xmlns="http://www.w3.org/2000/svg">
<path d="M0 65.808C0 11.6151 11.6151 0 65.808 0H414.192C468.385 0 480 11.6151 480 65.808V114.192C480 168.385 468.385 180 414.192 180H65.808C11.6151 180 0 168.385 0 114.192V65.808Z" fill="white"/>
<path d="M171.147 83.3589C166.322 83.3589 162.279 82.5321 159.018 80.8785C155.757 79.2248 152.965 76.9232 150.642 73.9734L157.879 65.7946C160.113 68.7443 162.369 70.7332 164.647 71.7611C166.97 72.7891 169.293 73.303 171.616 73.303C173.358 73.303 174.788 72.9902 175.905 72.3645C177.022 71.7388 177.58 70.8002 177.58 69.5488C177.58 68.4762 177.111 67.5823 176.173 66.8672C175.279 66.1522 174.14 65.5935 172.755 65.1913C171.37 64.7443 169.963 64.3644 168.534 64.0516C163.352 62.9343 159.487 61.1689 156.941 58.7555C154.395 56.3421 153.122 53.1465 153.122 49.1688C153.122 46.2638 153.948 43.7387 155.601 41.5934C157.298 39.4034 159.51 37.7051 162.235 36.4984C164.96 35.247 167.886 34.6213 171.013 34.6213C175.748 34.6213 179.501 35.3587 182.271 36.8336C185.04 38.2638 187.274 40.2303 188.971 42.7331L181.667 49.7722C180.238 48.1186 178.652 46.8895 176.91 46.085C175.168 45.2359 173.358 44.8113 171.482 44.8113C169.606 44.8113 168.109 45.1241 166.992 45.7498C165.876 46.3755 165.317 47.2917 165.317 48.4984C165.317 49.437 165.697 50.2191 166.456 50.8448C167.261 51.4705 168.266 51.9845 169.472 52.3867C170.678 52.7443 171.929 53.0571 173.224 53.3253C176.485 53.951 179.344 54.8672 181.802 56.0739C184.303 57.2806 186.246 58.8672 187.631 60.8337C189.016 62.7555 189.709 65.1466 189.709 68.0069C189.709 71.3142 188.904 74.1075 187.296 76.3868C185.688 78.6662 183.477 80.4092 180.662 81.6159C177.893 82.7779 174.721 83.3589 171.147 83.3589Z" fill="#8280F5"/>
<path d="M205.641 82.6885V46.2861H191.636V35.761H232.11V46.2861H217.703V82.6885H205.641Z" fill="#8280F5"/>
<path d="M257.37 83.0908C253.439 83.0908 249.954 82.3086 246.917 80.7444C243.879 79.1355 241.489 76.9455 239.747 74.1745C238.004 71.4036 237.133 68.2304 237.133 64.6549V35.761H249.262V64.0516C249.262 66.5097 250.044 68.5432 251.607 70.1522C253.171 71.7611 255.092 72.5656 257.37 72.5656C259.738 72.5656 261.726 71.7611 263.334 70.1522C264.942 68.5432 265.746 66.5097 265.746 64.0516V35.761H277.607V64.6549C277.607 68.2304 276.736 71.4036 274.994 74.1745C273.251 76.9455 270.839 79.1355 267.757 80.7444C264.719 82.3086 261.257 83.0908 257.37 83.0908Z" fill="#8280F5"/>
<path d="M284.367 82.6885V35.761H304.269C308.87 35.761 312.936 36.7666 316.465 38.7777C319.994 40.7442 322.741 43.4928 324.707 47.0236C326.717 50.5543 327.722 54.6214 327.722 59.2248C327.722 63.8281 326.717 67.8952 324.707 71.4259C322.741 74.9567 319.994 77.7276 316.465 79.7388C312.936 81.7053 308.87 82.6885 304.269 82.6885H284.367ZM303.934 46.2861H296.429V72.1634H303.934C307.419 72.1634 310.211 70.979 312.31 68.6103C314.454 66.1969 315.527 63.0683 315.527 59.2248C315.527 55.3812 314.454 52.275 312.31 49.9063C310.211 47.4929 307.419 46.2861 303.934 46.2861Z" fill="#8280F5"/>
<path d="M333.041 82.6885V35.761H366.277V45.8839H344.7V53.9957H363.396V63.6494H344.7V72.5656H367.081V82.6885H333.041Z" fill="#8280F5"/>
<path d="M373.272 82.6885V35.761H406.509V45.8839H384.932V53.9957H403.628V63.6494H384.932V72.5656H407.313V82.6885H373.272Z" fill="#8280F5"/>
<path d="M413.504 82.6885V35.761H433.942C436.935 35.761 439.615 36.4314 441.983 37.7721C444.351 39.1129 446.205 40.9677 447.545 43.3364C448.93 45.6604 449.622 48.3197 449.622 51.3141C449.622 54.3979 448.93 57.1465 447.545 59.5599C446.205 61.9734 444.351 63.8952 441.983 65.3253C439.615 66.7108 436.935 67.4036 433.942 67.4036H425.566V82.6885H413.504ZM425.365 56.8784H432.133C433.562 56.8784 434.768 56.3867 435.751 55.4035C436.734 54.3756 437.225 53.0571 437.225 51.4482C437.225 49.8392 436.734 48.5878 435.751 47.694C434.768 46.7554 433.562 46.2861 432.133 46.2861H425.365V56.8784Z" fill="#8280F5"/>
<path d="M177.862 143.189C173.144 143.189 168.973 142.184 165.348 140.175C161.766 138.122 158.949 135.305 156.896 131.724C154.844 128.142 153.817 124.036 153.817 119.407C153.817 115.956 154.407 112.789 155.586 109.907C156.809 107.024 158.513 104.534 160.696 102.438C162.924 100.298 165.523 98.638 168.493 97.4587C171.507 96.2794 174.782 95.6897 178.32 95.6897C181.552 95.6897 184.675 96.323 187.689 97.5897C190.746 98.8127 193.302 100.603 195.354 102.962L188.148 111.152C186.925 109.754 185.483 108.64 183.824 107.81C182.208 106.98 180.351 106.565 178.255 106.565C175.94 106.565 173.843 107.09 171.965 108.138C170.131 109.186 168.646 110.693 167.51 112.658C166.418 114.58 165.872 116.873 165.872 119.538C165.872 123.425 167.095 126.526 169.541 128.841C171.987 131.156 175.219 132.313 179.237 132.313C181.247 132.313 183.125 131.898 184.872 131.068C186.663 130.239 188.148 129.168 189.327 127.858L195.027 136.834C193.935 138.057 192.472 139.149 190.637 140.11C188.803 141.071 186.772 141.835 184.544 142.403C182.36 142.927 180.133 143.189 177.862 143.189ZM200.942 142.534V96.6725H212.735V132.248H232.98V142.534H200.942ZM238.834 142.534V132.706H246.696V106.5H238.834V96.6725H266.285V106.5H258.488V132.706H266.285V142.534H238.834ZM275.482 142.534V96.6725H307.978V106.565H286.882V114.493H305.161V123.927H286.882V132.641H308.764V142.534H275.482ZM316.783 142.534V96.6725H327.331L347.969 124.844C347.75 122.923 347.554 121.132 347.379 119.472C347.248 117.769 347.161 115.956 347.117 114.034C347.073 112.112 347.051 109.885 347.051 107.352V96.6725H358.517V142.534H347.838L327.462 114.951C327.68 116.873 327.833 118.489 327.921 119.8C328.052 121.11 328.139 122.377 328.183 123.6C328.226 124.823 328.248 126.242 328.248 127.858V142.534H316.783ZM378.604 142.534V106.958H364.911V96.6725H404.482V106.958H390.397V142.534H378.604Z" fill="#434343"/>
<ellipse cx="76.978" cy="87.5338" rx="48.9779" ry="49" fill="#9290FB"/>
<ellipse cx="76.978" cy="87.5338" rx="36.7335" ry="36.75" fill="#5C5ADD"/>
<ellipse cx="76.978" cy="87.5338" rx="24.489" ry="24.5" fill="#3C39C0"/>
</svg>
